<svg width="102" height="102" viewBox="0 0 102 102" fill="none" xmlns="http://www.w3.org/2000/svg">
<path d="M83.64 0C80.0461 0.278907 76.9542 2.09578 74.715 4.335L65.4713 13.6425L64.4512 12.6225C63.1842 11.3555 61.2877 10.6383 59.3512 11.3475C59.3034 11.3634 59.2716 11.3316 59.2237 11.3475V11.4113L56.2275 12.3675L55.7175 11.7937C54.0202 10.0964 51.8208 9.24375 49.5975 9.24375C47.3742 9.24375 45.1111 10.0964 43.4137 11.7937L35.7 19.5712C34.2258 21.0455 33.7795 23.1572 34.2975 25.0537L8.73375 50.5537C7.50656 51.7809 7.11609 53.4464 7.45875 55.0163C2.85281 59.6541 0 66.1406 0 73.2487C0 82.7873 6.30328 96.9717 22.5675 101.872L24.3525 96.0075C10.8295 91.9355 6.12 80.0302 6.12 73.2487C6.12 68.077 8.00062 63.3675 11.0925 59.925L26.9025 75.6712C31.1339 79.9027 38.0348 79.9027 42.2663 75.6712L63.0487 54.8887C65.2322 57.0722 68.7544 56.9925 71.0812 54.9525H71.145L73.1212 52.9762C74.4839 51.5817 75.233 49.7648 75.48 47.8125V47.2388L73.6312 33.7875H73.5675C73.6711 31.4048 72.922 29.062 71.2087 27.3487L70.2525 26.3925L71.2725 23.2687L71.3363 23.1412V23.0138C71.655 21.428 71.4159 19.5872 69.9975 18.1687L69.8063 17.9775L78.3487 9.435L79.05 8.67C80.4844 7.23562 82.3809 6.2475 84.0863 6.12H102V0H83.64ZM49.5975 13.26C50.745 13.26 51.8925 13.77 52.8487 14.7262L55.1437 17.0212L56.355 16.6388L60.6262 15.1725H60.7537C60.8175 15.1486 61.2478 15.1566 61.5825 15.4913L67.1287 21.0375C67.3359 21.2447 67.4475 21.7467 67.3838 22.185C67.3838 22.2089 67.3917 22.2248 67.3838 22.2487L65.9812 26.265L65.5987 27.4762L68.34 30.2175C69.352 31.2295 69.7027 32.3372 69.5512 33.8512V34.3612L71.3363 47.43C71.1609 48.6253 70.7944 49.5656 70.1888 50.1712L68.4037 51.8925C67.4714 52.7133 66.5869 52.6894 65.9175 52.02L38.5687 24.6712C37.8994 24.0019 37.8994 23.1094 38.5687 22.44L46.3462 14.7262C47.3025 13.77 48.45 13.26 49.5975 13.26ZM36.6562 28.4963L60.18 52.02L39.3337 72.8025C36.6323 75.5039 32.4727 75.5039 29.7712 72.8025L29.7075 72.675L11.7937 54.825C11.7778 54.8011 11.8097 54.7852 11.7937 54.7612C11.475 54.307 11.5228 53.6297 11.6663 53.4862L36.6562 28.4963ZM37.23 39.78C34.5047 39.78 31.8112 40.8 29.7712 42.84L20.9737 51.5737C19.0294 53.5181 19.0294 56.8331 20.9737 58.7775L29.3888 67.1287C32.2256 69.9656 36.9591 69.9656 39.78 66.9375C39.8039 66.9136 39.8198 66.8977 39.8438 66.8737L50.8088 55.9087C52.7531 53.9644 52.7531 50.7131 50.8088 48.7687L44.88 42.84V42.7762C44.4656 42.3858 43.9955 42.067 43.5412 41.7562C43.4297 41.6367 43.3022 41.5252 43.1587 41.4375C43.1189 41.4136 43.0711 41.3977 43.0312 41.3737C42.9675 41.3498 42.9037 41.3259 42.84 41.31C41.1028 40.3059 39.1664 39.78 37.23 39.78ZM37.2938 43.86C37.7639 43.86 38.2341 43.9556 38.6963 44.0513C34.162 50.1712 34.68 56.865 34.68 56.865C34.7677 57.9886 35.7558 58.8333 36.8794 58.7456C38.003 58.658 38.8477 57.6698 38.76 56.5462C38.76 56.5462 38.3377 51.008 42.33 46.0275L47.94 51.6375C48.442 52.1395 48.442 52.538 47.94 53.04L36.9113 64.0687H36.8475V64.1325C35.5805 65.527 33.4767 65.4792 32.2575 64.26L23.9062 55.9087C23.4042 55.4067 23.4042 55.0083 23.9062 54.5062L32.1937 46.2188L32.64 45.7087C33.8672 44.4816 35.5884 43.86 37.2938 43.86Z" fill="#DBA833"/>
</svg>
