<svg width="966" height="755" viewBox="0 0 966 755" fill="none" xmlns="http://www.w3.org/2000/svg">
<g opacity="0.3" filter="url(#filter0_d_101_37)">
<path fill-rule="evenodd" clip-rule="evenodd" d="M734.041 563.233C737.935 568.417 741.883 573.672 745.867 578.908C751.4 586.181 756.988 594.632 762.601 603.118C763.585 604.607 764.57 606.096 765.555 607.58C772.18 617.558 778.835 627.315 785.543 635.147C792.279 643.01 798.918 648.746 805.459 650.915C808.694 651.988 811.895 652.185 815.097 651.341C818.31 650.495 821.618 648.577 825.017 645.273C825.561 644.744 826.432 644.755 826.963 645.297C827.494 645.839 827.483 646.708 826.939 647.237C823.284 650.79 819.573 653 815.8 653.993C812.018 654.989 808.269 654.738 804.59 653.518C797.302 651.101 790.254 644.871 783.45 636.928C776.618 628.952 769.878 619.063 763.26 609.094C762.268 607.6 761.278 606.104 760.292 604.612C754.676 596.121 749.146 587.76 743.673 580.565C739.659 575.289 735.692 570.009 731.786 564.809C719.92 549.016 708.612 533.964 698.222 522.003C691.319 514.056 684.876 507.54 679 503.104C673.084 498.638 667.964 496.451 663.66 496.757C662.902 496.811 662.243 496.243 662.189 495.487C662.135 494.732 662.706 494.075 663.464 494.021C668.795 493.642 674.6 496.341 680.663 500.918C686.766 505.525 693.356 512.21 700.303 520.207C710.763 532.249 722.158 547.416 734.041 563.233Z" fill="white"/>
<path fill-rule="evenodd" clip-rule="evenodd" d="M734.369 562.066C738.271 567.236 742.222 572.472 746.21 577.69C751.78 584.978 757.398 593.436 763.008 601.881L763.024 601.904C764.01 603.388 764.996 604.872 765.982 606.351C772.621 616.305 779.244 625.968 785.902 633.705C792.615 641.506 799.06 646.979 805.237 649.018C808.255 650.015 811.186 650.184 814.103 649.419C817.041 648.648 820.154 646.881 823.429 643.711C824.519 642.656 826.265 642.678 827.328 643.759C828.392 644.84 828.37 646.572 827.28 647.627C823.49 651.294 819.571 653.643 815.513 654.707C811.434 655.777 807.403 655.499 803.496 654.209C795.822 651.675 788.557 645.217 781.707 637.256C774.803 629.232 768.01 619.306 761.383 609.369C760.388 607.878 759.397 606.386 758.409 604.899C752.778 596.423 747.265 588.125 741.815 580.995C737.791 575.73 733.815 570.461 729.903 565.277C718.009 549.517 706.714 534.552 696.345 522.669C689.453 514.772 683.073 508.358 677.301 504.02C671.449 499.623 666.664 497.697 662.867 497.966C661.348 498.073 660.028 496.939 659.92 495.432C659.811 493.926 660.955 492.617 662.474 492.509C668.327 492.095 674.485 495.041 680.632 499.66C686.859 504.34 693.533 511.089 700.514 519.089C711.024 531.133 722.461 546.288 734.346 562.036L734.369 562.066ZM745.111 578.516C741.12 573.295 737.167 568.055 733.265 562.886C721.363 547.115 709.95 531.991 699.472 519.984C692.513 512.01 685.912 505.345 679.799 500.75C673.726 496.186 667.911 493.495 662.572 493.874C661.812 493.927 661.241 494.582 661.295 495.335C661.349 496.088 662.009 496.655 662.768 496.602C667.079 496.296 672.208 498.477 678.134 502.93C684.02 507.353 690.473 513.851 697.387 521.774C707.795 533.701 719.122 548.71 731.007 564.458C734.919 569.642 738.893 574.907 742.914 580.169C748.396 587.342 753.935 595.68 759.56 604.146C760.548 605.633 761.539 607.125 762.533 608.615C769.162 618.555 775.913 628.416 782.756 636.369C789.572 644.289 796.631 650.501 803.931 652.911C807.616 654.128 811.372 654.378 815.16 653.385C818.939 652.394 822.656 650.191 826.317 646.648C826.862 646.12 826.873 645.255 826.342 644.714C825.81 644.173 824.937 644.163 824.392 644.69C820.988 647.985 817.674 649.897 814.456 650.741C811.248 651.582 808.042 651.386 804.802 650.316C798.25 648.153 791.6 642.434 784.853 634.593C778.134 626.784 771.468 617.055 764.832 607.106C763.845 605.626 762.858 604.14 761.872 602.656C756.251 594.194 750.653 585.768 745.111 578.516Z" fill="black"/>
<path d="M449.663 203.804C439.83 203.804 431.858 212.115 431.858 222.367C431.858 235.626 449.663 256.84 449.663 256.84C449.663 256.84 467.468 235.626 467.468 222.367C467.468 212.115 459.497 203.804 449.663 203.804ZM449.663 228.996C446.151 228.996 443.304 226.029 443.304 222.367C443.304 218.704 446.151 215.737 449.663 215.737C453.176 215.737 456.022 218.704 456.022 222.367C456.022 226.029 453.176 228.996 449.663 228.996Z" fill="white"/>
<path fill-rule="evenodd" clip-rule="evenodd" d="M448.794 255.773C449.345 256.461 449.663 256.84 449.663 256.84C449.663 256.84 449.981 256.461 450.532 255.773C454.105 251.311 467.468 233.853 467.468 222.367C467.468 212.115 459.497 203.804 449.663 203.804C439.83 203.804 431.858 212.115 431.858 222.367C431.858 233.853 445.222 251.311 448.794 255.773ZM449.663 254.699C450.12 254.125 450.714 253.368 451.405 252.459C453.059 250.283 455.262 247.248 457.462 243.808C459.664 240.363 461.848 236.537 463.477 232.777C465.115 228.994 466.141 225.393 466.141 222.367C466.141 212.879 458.764 205.188 449.663 205.188C440.563 205.188 433.185 212.879 433.185 222.367C433.185 225.393 434.211 228.994 435.85 232.777C437.479 236.537 439.662 240.363 441.865 243.808C444.065 247.248 446.268 250.283 447.921 252.459C448.612 253.368 449.206 254.125 449.663 254.699ZM449.663 230.38C445.418 230.38 441.977 226.793 441.977 222.367C441.977 217.94 445.418 214.354 449.663 214.354C453.909 214.354 457.349 217.94 457.349 222.367C457.349 226.793 453.909 230.38 449.663 230.38ZM443.304 222.367C443.304 226.029 446.151 228.996 449.663 228.996C453.176 228.996 456.022 226.029 456.022 222.367C456.022 218.704 453.176 215.737 449.663 215.737C446.151 215.737 443.304 218.704 443.304 222.367Z" fill="black"/>
<path d="M625.06 402.31C608.323 402.31 594.754 415.726 594.754 432.275C594.754 453.679 625.06 487.925 625.06 487.925C625.06 487.925 655.367 453.679 655.367 432.275C655.367 415.726 641.798 402.31 625.06 402.31ZM625.06 442.977C619.081 442.977 614.237 438.187 614.237 432.275C614.237 426.363 619.081 421.573 625.06 421.573C631.039 421.573 635.884 426.363 635.884 432.275C635.884 438.187 631.039 442.977 625.06 442.977Z" fill="white"/>
<path fill-rule="evenodd" clip-rule="evenodd" d="M624.011 486.709C624.682 487.498 625.06 487.925 625.06 487.925C625.06 487.925 625.438 487.498 626.11 486.709C631.452 480.436 655.367 451.288 655.367 432.275C655.367 415.726 641.798 402.31 625.06 402.31C608.323 402.31 594.754 415.726 594.754 432.275C594.754 451.288 618.669 480.436 624.011 486.709ZM625.06 485.487C625.086 485.457 625.111 485.427 625.137 485.397C625.958 484.428 627.132 483.018 628.543 481.258C631.365 477.736 635.126 472.822 638.883 467.25C642.644 461.672 646.382 455.463 649.174 449.349C651.979 443.21 653.768 437.297 653.768 432.275C653.768 416.599 640.915 403.89 625.06 403.89C609.206 403.89 596.353 416.599 596.353 432.275C596.353 437.297 598.142 443.21 600.946 449.349C603.739 455.463 607.477 461.672 611.237 467.25C614.995 472.822 618.755 477.736 621.578 481.258C622.988 483.018 624.163 484.428 624.984 485.397C625.01 485.427 625.035 485.457 625.06 485.487ZM625.06 444.557C618.199 444.557 612.638 439.06 612.638 432.275C612.638 425.49 618.199 419.992 625.06 419.992C631.922 419.992 637.483 425.49 637.483 432.275C637.483 439.06 631.922 444.557 625.06 444.557ZM614.237 432.275C614.237 438.187 619.081 442.977 625.06 442.977C631.039 442.977 635.884 438.187 635.884 432.275C635.884 426.363 631.039 421.573 625.06 421.573C619.081 421.573 614.237 426.363 614.237 432.275Z" fill="black"/>
<path d="M897.438 335.636C887.186 335.636 878.875 343.947 878.875 354.199C878.875 367.458 897.438 388.672 897.438 388.672C897.438 388.672 916 367.458 916 354.199C916 343.947 907.689 335.636 897.438 335.636ZM897.438 360.828C893.775 360.828 890.808 357.861 890.808 354.199C890.808 350.536 893.775 347.569 897.438 347.569C901.1 347.569 904.067 350.536 904.067 354.199C904.067 357.861 901.1 360.828 897.438 360.828Z" fill="white"/>
<path fill-rule="evenodd" clip-rule="evenodd" d="M896.531 387.605C897.106 388.293 897.438 388.672 897.438 388.672C897.438 388.672 897.769 388.293 898.344 387.605C902.068 383.143 916 365.685 916 354.199C916 343.947 907.689 335.636 897.438 335.636C887.186 335.636 878.875 343.947 878.875 354.199C878.875 365.685 892.807 383.143 896.531 387.605ZM897.438 386.531C897.914 385.957 898.533 385.2 899.254 384.291C900.978 382.115 903.274 379.08 905.568 375.64C907.864 372.195 910.141 368.369 911.839 364.609C913.547 360.826 914.617 357.225 914.617 354.199C914.617 344.711 906.925 337.02 897.438 337.02C887.95 337.02 880.259 344.711 880.259 354.199C880.259 357.225 881.328 360.826 883.036 364.609C884.734 368.369 887.011 372.195 889.307 375.64C891.601 379.08 893.897 382.115 895.622 384.291C896.342 385.2 896.961 385.957 897.438 386.531ZM897.438 362.212C893.011 362.212 889.425 358.625 889.425 354.199C889.425 349.772 893.011 346.186 897.438 346.186C901.864 346.186 905.451 349.772 905.451 354.199C905.451 358.625 901.864 362.212 897.438 362.212ZM890.808 354.199C890.808 357.861 893.775 360.828 897.438 360.828C901.1 360.828 904.067 357.861 904.067 354.199C904.067 350.536 901.1 347.569 897.438 347.569C893.775 347.569 890.808 350.536 890.808 354.199Z" fill="black"/>
<path d="M828.112 587.935C818.069 587.935 809.928 596.127 809.928 606.233C809.928 619.302 828.112 640.213 828.112 640.213C828.112 640.213 846.296 619.302 846.296 606.233C846.296 596.127 838.155 587.935 828.112 587.935ZM828.112 612.767C824.525 612.767 821.618 609.842 821.618 606.233C821.618 602.623 824.525 599.698 828.112 599.698C831.699 599.698 834.606 602.623 834.606 606.233C834.606 609.842 831.699 612.767 828.112 612.767Z" fill="white"/>
<path fill-rule="evenodd" clip-rule="evenodd" d="M827.224 639.161C827.787 639.84 828.112 640.213 828.112 640.213C828.112 640.213 828.437 639.84 829 639.161C832.648 634.764 846.296 617.555 846.296 606.233C846.296 596.127 838.155 587.935 828.112 587.935C818.069 587.935 809.928 596.127 809.928 606.233C809.928 617.555 823.576 634.764 827.224 639.161ZM828.112 638.103C828.578 637.538 829.185 636.791 829.891 635.895C831.58 633.75 833.829 630.759 836.076 627.368C838.326 623.972 840.556 620.201 842.219 616.495C843.893 612.766 844.94 609.216 844.94 606.233C844.94 596.88 837.406 589.299 828.112 589.299C818.818 589.299 811.284 596.88 811.284 606.233C811.284 609.216 812.331 612.766 814.005 616.495C815.668 620.201 817.898 623.972 820.148 627.368C822.395 630.759 824.644 633.75 826.333 635.895C827.039 636.791 827.645 637.538 828.112 638.103ZM828.112 614.131C823.776 614.131 820.262 610.596 820.262 606.233C820.262 601.87 823.776 598.334 828.112 598.334C832.448 598.334 835.961 601.87 835.961 606.233C835.961 610.596 832.448 614.131 828.112 614.131ZM821.618 606.233C821.618 609.842 824.525 612.767 828.112 612.767C831.699 612.767 834.606 609.842 834.606 606.233C834.606 602.623 831.699 599.698 828.112 599.698C824.525 599.698 821.618 602.623 821.618 606.233Z" fill="black"/>
<path d="M489.061 601.573C478.809 601.573 470.499 609.884 470.499 620.136C470.499 633.395 489.061 654.609 489.061 654.609C489.061 654.609 507.624 633.395 507.624 620.136C507.624 609.884 499.313 601.573 489.061 601.573ZM489.061 626.765C485.399 626.765 482.432 623.798 482.432 620.136C482.432 616.473 485.399 613.506 489.061 613.506C492.723 613.506 495.691 616.473 495.691 620.136C495.691 623.798 492.723 626.765 489.061 626.765Z" fill="white"/>
<path fill-rule="evenodd" clip-rule="evenodd" d="M488.155 653.542C488.73 654.23 489.061 654.609 489.061 654.609C489.061 654.609 489.393 654.23 489.967 653.542C493.692 649.08 507.624 631.622 507.624 620.136C507.624 609.884 499.313 601.573 489.061 601.573C478.809 601.573 470.499 609.884 470.499 620.136C470.499 631.622 484.431 649.08 488.155 653.542ZM489.061 652.468C489.538 651.895 490.157 651.137 490.877 650.228C492.601 648.052 494.898 645.017 497.191 641.577C499.488 638.132 501.764 634.306 503.463 630.546C505.171 626.763 506.24 623.162 506.24 620.136C506.24 610.648 498.549 602.957 489.061 602.957C479.574 602.957 471.882 610.648 471.882 620.136C471.882 623.162 472.952 626.763 474.66 630.546C476.358 634.306 478.635 638.132 480.931 641.577C483.225 645.017 485.521 648.052 487.245 650.228C487.966 651.137 488.585 651.895 489.061 652.468ZM489.061 628.149C484.635 628.149 481.048 624.562 481.048 620.136C481.048 615.709 484.635 612.123 489.061 612.123C493.488 612.123 497.074 615.709 497.074 620.136C497.074 624.562 493.488 628.149 489.061 628.149ZM482.432 620.136C482.432 623.798 485.399 626.765 489.061 626.765C492.723 626.765 495.691 623.798 495.691 620.136C495.691 616.473 492.723 613.506 489.061 613.506C485.399 613.506 482.432 616.473 482.432 620.136Z" fill="black"/>
<path d="M68.5626 554.598C58.3107 554.598 50 562.909 50 573.161C50 586.42 68.5626 607.634 68.5626 607.634C68.5626 607.634 87.1251 586.42 87.1251 573.161C87.1251 562.909 78.8144 554.598 68.5626 554.598ZM68.5626 579.79C64.9004 579.79 61.9331 576.823 61.9331 573.161C61.9331 569.499 64.9004 566.531 68.5626 566.531C72.2247 566.531 75.192 569.499 75.192 573.161C75.192 576.823 72.2247 579.79 68.5626 579.79Z" fill="white"/>
<path fill-rule="evenodd" clip-rule="evenodd" d="M67.6564 606.567C68.231 607.255 68.5626 607.634 68.5626 607.634C68.5626 607.634 68.8941 607.255 69.4687 606.567C73.1928 602.106 87.1251 584.648 87.1251 573.161C87.1251 562.909 78.8144 554.598 68.5626 554.598C58.3107 554.598 50 562.909 50 573.161C50 584.648 63.9323 602.106 67.6564 606.567ZM68.5626 605.493C69.0388 604.92 69.6582 604.162 70.3786 603.253C72.1027 601.077 74.399 598.043 76.6927 594.602C78.9891 591.158 81.2657 587.332 82.9638 583.572C84.6721 579.789 85.7416 576.188 85.7416 573.161C85.7416 563.673 78.0503 555.982 68.5626 555.982C59.0748 555.982 51.3835 563.673 51.3835 573.161C51.3835 576.188 52.453 579.789 54.1613 583.572C55.8595 587.332 58.136 591.158 60.4325 594.602C62.7261 598.043 65.0225 601.077 66.7465 603.253C67.4669 604.162 68.0863 604.92 68.5626 605.493ZM68.5626 581.174C64.1363 581.174 60.5495 577.587 60.5495 573.161C60.5495 568.735 64.1363 565.148 68.5626 565.148C72.9888 565.148 76.5756 568.735 76.5756 573.161C76.5756 577.587 72.9888 581.174 68.5626 581.174ZM61.9331 573.161C61.9331 576.823 64.9004 579.79 68.5626 579.79C72.2247 579.79 75.192 576.823 75.192 573.161C75.192 569.499 72.2247 566.531 68.5626 566.531C64.9004 566.531 61.9331 569.499 61.9331 573.161Z" fill="black"/>
<path d="M855.767 50C845.515 50 837.204 58.3107 837.204 68.5626C837.204 81.8215 855.767 103.036 855.767 103.036C855.767 103.036 874.329 81.8215 874.329 68.5626C874.329 58.3107 866.018 50 855.767 50ZM855.767 75.192C852.105 75.192 849.137 72.2247 849.137 68.5626C849.137 64.9004 852.105 61.9331 855.767 61.9331C859.429 61.9331 862.396 64.9004 862.396 68.5626C862.396 72.2247 859.429 75.192 855.767 75.192Z" fill="white"/>
<path fill-rule="evenodd" clip-rule="evenodd" d="M854.861 101.969C855.435 102.657 855.767 103.036 855.767 103.036C855.767 103.036 856.098 102.657 856.673 101.969C860.397 97.5073 874.329 80.0494 874.329 68.5626C874.329 58.3107 866.018 50 855.767 50C845.515 50 837.204 58.3107 837.204 68.5626C837.204 80.0494 851.136 97.5073 854.861 101.969ZM855.767 100.895C856.243 100.321 856.862 99.5637 857.583 98.6547C859.307 96.4791 861.603 93.4443 863.897 90.0039C866.193 86.5593 868.47 82.7333 870.168 78.9732C871.876 75.1904 872.946 71.5893 872.946 68.5626C872.946 59.0748 865.254 51.3835 855.767 51.3835C846.279 51.3835 838.588 59.0748 838.588 68.5626C838.588 71.5893 839.657 75.1904 841.365 78.9732C843.064 82.7333 845.34 86.5593 847.637 90.0039C849.93 93.4443 852.227 96.4791 853.951 98.6547C854.671 99.5637 855.29 100.321 855.767 100.895ZM855.767 76.5756C851.34 76.5756 847.754 72.9888 847.754 68.5626C847.754 64.1363 851.34 60.5495 855.767 60.5495C860.193 60.5495 863.78 64.1363 863.78 68.5626C863.78 72.9888 860.193 76.5756 855.767 76.5756ZM849.137 68.5626C849.137 72.2247 852.105 75.192 855.767 75.192C859.429 75.192 862.396 72.2247 862.396 68.5626C862.396 64.9004 859.429 61.9331 855.767 61.9331C852.105 61.9331 849.137 64.9004 849.137 68.5626Z" fill="black"/>
<path fill-rule="evenodd" clip-rule="evenodd" d="M309.589 516.991C295.448 526.922 280.69 537.285 263.37 542.647L263.225 542.691L263.074 542.704C185.177 548.974 140.849 572.304 114.216 591.282C107.549 596.033 101.98 600.519 97.2535 604.416C96.3037 605.199 95.3854 605.961 94.4974 606.697C90.9879 609.607 87.9521 612.125 85.312 614.036C82.0488 616.398 79.1161 618.05 76.4019 618.226C73.4561 618.417 71.1282 616.879 69.1664 613.897C68.7509 613.266 68.9273 612.418 69.5604 612.003C70.1936 611.589 71.0436 611.765 71.4591 612.397C73.0966 614.886 74.6038 615.601 76.2241 615.496C78.0761 615.376 80.4406 614.183 83.7012 611.822C86.261 609.969 89.2041 607.529 92.7033 604.627C93.6002 603.883 94.5336 603.11 95.5064 602.307C100.252 598.394 105.878 593.862 112.622 589.056C139.62 569.818 184.378 546.32 262.702 539.989C279.512 534.753 293.837 524.7 307.959 514.789C310.271 513.166 312.578 511.547 314.889 509.954C331.259 498.669 347.855 488.682 367.859 488.682H367.923C406.973 488.682 443.506 488.682 486.918 503.804C516.986 514.278 537.815 521.523 554.897 521.731C563.372 521.834 570.89 520.197 578.128 516.346C585.385 512.485 592.433 506.36 599.905 497.383C600.388 496.802 601.253 496.722 601.835 497.205C602.418 497.687 602.498 498.549 602.015 499.131C594.403 508.276 587.091 514.678 579.419 518.759C571.728 522.851 563.747 524.574 554.863 524.466C537.303 524.253 516.079 516.859 486.408 506.524L486.014 506.387C443.065 491.426 406.943 491.418 367.859 491.418C348.784 491.418 332.814 500.922 316.448 512.204C314.173 513.773 311.889 515.376 309.589 516.991Z" fill="white"/>
<path fill-rule="evenodd" clip-rule="evenodd" d="M310.356 518.845C296.3 528.761 281.428 539.252 263.941 544.689L263.536 543.38C280.816 538.006 295.54 527.62 309.649 517.668L309.651 517.666C311.945 516.048 314.222 514.442 316.492 512.87C332.821 501.562 348.754 492.037 367.785 492.037C406.78 492.037 442.819 492.045 485.67 507.039L486.063 507.177C515.666 517.535 536.841 524.945 554.362 525.159C563.225 525.267 571.188 523.54 578.861 519.44C586.515 515.349 593.81 508.933 601.405 499.767C601.888 499.185 601.808 498.32 601.226 497.837C600.645 497.353 599.782 497.433 599.3 498.016C591.846 507.012 584.814 513.151 577.573 517.021C570.351 520.88 562.851 522.521 554.395 522.417C537.353 522.21 516.571 514.948 486.572 504.451C443.26 489.296 406.81 489.296 367.85 489.296H367.785C347.827 489.296 331.27 499.304 314.937 510.615C312.631 512.211 310.329 513.834 308.023 515.46C293.932 525.394 279.641 535.469 262.869 540.717C184.725 547.062 140.069 570.612 113.133 589.893C106.404 594.709 100.791 599.252 96.0562 603.174C95.0858 603.978 94.1547 604.753 93.26 605.498C89.7688 608.406 86.832 610.852 84.2781 612.71C81.0249 615.076 78.6658 616.271 76.818 616.392C75.2014 616.497 73.6977 615.78 72.064 613.286C71.6494 612.653 70.8013 612.476 70.1696 612.892C69.538 613.307 69.3619 614.157 69.7765 614.79C71.7338 617.778 74.0564 619.319 76.9955 619.128C79.7034 618.951 82.6295 617.296 85.8852 614.928C88.5192 613.013 91.5481 610.49 95.0495 607.573C95.9355 606.835 96.8517 606.072 97.7994 605.287C102.515 601.381 108.071 596.885 114.723 592.124C141.295 573.104 185.521 549.722 263.24 543.437L263.35 544.804C185.891 551.067 141.899 574.356 115.519 593.239C108.904 597.974 103.377 602.446 98.671 606.344C97.725 607.127 96.8102 607.889 95.9241 608.627L95.8934 608.653C92.4165 611.549 89.3592 614.096 86.6888 616.038C83.4307 618.407 80.2217 620.291 77.0842 620.495C73.4812 620.73 70.7499 618.774 68.6327 615.542C67.8037 614.276 68.1557 612.576 69.4191 611.746C69.4191 611.746 69.4191 611.746 69.4191 611.746M263.391 543.425L263.24 543.437L263.35 544.804L263.652 544.779L263.941 544.689L263.536 543.38L263.391 543.425ZM69.4191 611.746C70.6824 610.915 72.3787 611.268 73.2077 612.533C73.959 613.68 74.6095 614.307 75.1596 614.643C75.6795 614.961 76.1751 615.06 76.7293 615.024C78.1463 614.932 80.2214 613.966 83.4745 611.6C85.984 609.775 88.8817 607.363 92.3851 604.445L92.3881 604.442C93.2818 603.698 94.2134 602.922 95.1846 602.117C99.9296 598.187 105.571 593.621 112.338 588.777C139.447 569.372 184.297 545.747 262.606 539.363C279.077 534.177 293.157 524.264 307.235 514.339C309.541 512.713 311.847 511.087 314.159 509.487C330.494 498.175 347.364 487.925 367.785 487.925H367.913C406.845 487.925 443.492 487.925 487.023 503.157C517.118 513.687 537.647 520.842 554.411 521.047C562.665 521.147 569.933 519.55 576.929 515.811C583.963 512.052 590.863 506.052 598.247 497.14C599.212 495.975 600.937 495.815 602.1 496.782C603.263 497.749 603.423 499.478 602.458 500.643C594.793 509.893 587.366 516.448 579.505 520.649C571.606 524.87 563.412 526.64 554.345 526.529C536.601 526.313 515.251 518.842 485.878 508.564L485.219 508.333C442.611 493.425 406.785 493.408 367.785 493.408C349.218 493.408 333.597 502.691 317.27 513.998C315.005 515.566 312.732 517.169 310.437 518.789L310.356 518.845" fill="black"/>
<path fill-rule="evenodd" clip-rule="evenodd" d="M847.403 110.248C847.941 110.779 847.948 111.646 847.418 112.185C832.913 126.951 808.196 157.289 786.746 186.225C776.027 200.686 766.143 214.77 758.774 226.356C755.088 232.15 752.043 237.302 749.839 241.554C747.611 245.853 746.32 249.088 746.015 251.102C745.112 257.075 741.776 263.349 737.199 269.559C732.608 275.789 726.679 282.072 720.438 288.07C714.194 294.07 707.603 299.817 701.68 304.963L700.991 305.562C695.332 310.477 690.356 314.799 686.885 318.278C675.052 330.139 668.517 341.05 665.126 350.837C661.738 360.619 661.464 369.353 662.259 376.903C662.658 380.685 663.324 384.172 664.007 387.361C664.222 388.367 664.441 389.351 664.654 390.308C665.109 392.356 665.537 394.281 665.843 396.023C666.292 398.579 666.52 400.952 666.147 403C665.76 405.128 664.723 406.904 662.74 408.159C662.102 408.563 661.259 408.372 660.856 407.733C660.453 407.093 660.643 406.247 661.281 405.844C662.543 405.045 663.192 403.975 663.459 402.509C663.74 400.962 663.59 398.991 663.152 396.498C662.857 394.817 662.451 392.993 662.004 390.983C661.788 390.012 661.563 388.998 661.335 387.936C660.644 384.707 659.955 381.112 659.542 377.191C658.715 369.336 658.996 360.183 662.545 349.939C666.092 339.699 672.878 328.444 684.953 316.341C688.495 312.791 693.537 308.411 699.149 303.537L699.89 302.894C705.818 297.744 712.359 292.04 718.547 286.093C724.739 280.143 730.542 273.982 735.001 267.932C739.476 261.86 742.509 256.016 743.314 250.692C743.692 248.186 745.183 244.595 747.415 240.291C749.67 235.94 752.762 230.713 756.47 224.883C763.887 213.222 773.812 199.081 784.553 184.591C806.024 155.627 830.831 125.167 845.471 110.263C846.001 109.724 846.866 109.718 847.403 110.248Z" fill="white"/>
<path fill-rule="evenodd" clip-rule="evenodd" d="M849.264 109.127C850.345 110.19 850.359 111.925 849.294 113.004C834.777 127.715 809.969 158.022 788.412 186.972C777.644 201.432 767.726 215.501 760.34 227.061C756.646 232.843 753.607 237.963 751.417 242.169C749.178 246.47 747.98 249.53 747.711 251.299C746.754 257.603 743.246 264.098 738.593 270.383C733.91 276.709 727.886 283.059 721.586 289.087C715.279 295.121 708.627 300.894 702.672 306.043L701.98 306.642L701.08 305.607L701.773 305.008C707.729 299.856 714.356 294.104 720.635 288.098C726.911 282.094 732.872 275.805 737.488 269.569C742.09 263.353 745.445 257.073 746.353 251.094C746.659 249.079 747.957 245.84 750.198 241.537C752.414 237.281 755.476 232.124 759.182 226.324C766.592 214.727 776.53 200.629 787.309 186.154C808.877 157.19 833.731 126.822 848.316 112.042C848.848 111.503 848.841 110.635 848.3 110.104C847.76 109.573 846.89 109.58 846.358 110.119C831.637 125.037 806.693 155.527 785.104 184.519C774.304 199.022 764.323 213.178 756.865 224.85C753.137 230.685 750.028 235.917 747.76 240.273C745.517 244.581 744.017 248.176 743.637 250.683C742.827 256.013 739.778 261.863 735.279 267.94C730.795 273.997 724.959 280.163 718.734 286.119C712.512 292.071 705.934 297.781 699.973 302.936L699.228 303.58C693.586 308.459 688.516 312.843 684.954 316.397C672.812 328.511 665.989 339.777 662.423 350.027C658.854 360.281 658.571 369.442 659.403 377.305C659.818 381.23 660.511 384.828 661.206 388.061C661.435 389.124 661.661 390.139 661.878 391.11C662.328 393.123 662.736 394.948 663.033 396.631C663.473 399.127 663.624 401.1 663.341 402.648C663.073 404.115 662.421 405.186 661.151 405.986C660.51 406.39 660.318 407.236 660.724 407.877C661.129 408.517 661.977 408.708 662.619 408.303C664.612 407.047 665.655 405.27 666.044 403.139C666.419 401.089 666.189 398.714 665.739 396.156C665.431 394.412 665.001 392.485 664.543 390.435C664.329 389.477 664.109 388.492 663.892 387.486C663.206 384.293 662.535 380.803 662.135 377.017C661.336 369.46 661.61 360.718 665.018 350.926C668.427 341.129 674.998 330.207 686.896 318.335C690.387 314.852 695.39 310.527 701.08 305.607L701.98 306.642C696.274 311.576 691.315 315.864 687.868 319.304C676.091 331.055 669.646 341.806 666.316 351.375C662.989 360.936 662.718 369.469 663.501 376.874C663.894 380.589 664.553 384.026 665.235 387.198C665.45 388.198 665.669 389.178 665.884 390.137L665.888 390.157C666.343 392.192 666.779 394.144 667.092 395.919C667.548 398.508 667.816 401.084 667.396 403.385C666.946 405.846 665.708 407.977 663.352 409.462C662.069 410.271 660.372 409.888 659.562 408.608C658.752 407.328 659.135 405.635 660.418 404.827C661.325 404.255 661.783 403.537 661.99 402.402C662.227 401.106 662.114 399.334 661.68 396.868C661.39 395.222 660.989 393.429 660.538 391.409C660.321 390.438 660.093 389.417 659.863 388.348C659.163 385.095 658.459 381.444 658.037 377.449C657.189 369.434 657.476 360.062 661.125 349.577C664.77 339.101 671.719 327.663 683.982 315.428C687.579 311.839 692.679 307.43 698.292 302.576L699.074 301.9C705.036 296.744 711.589 291.055 717.783 285.13C723.983 279.198 729.756 273.093 734.174 267.126C738.621 261.118 741.518 255.482 742.278 250.478C742.697 247.724 744.296 243.952 746.541 239.641C748.835 235.236 751.968 229.966 755.707 224.113C763.189 212.403 773.19 198.219 784.001 183.702C805.601 154.695 830.59 124.144 845.379 109.157C846.443 108.079 848.183 108.065 849.264 109.127Z" fill="black"/>
<path fill-rule="evenodd" clip-rule="evenodd" d="M455.198 261.386C455.954 261.386 456.567 261.998 456.567 262.754C456.567 264.102 457.108 265.181 458.179 266.143C459.295 267.145 460.971 267.999 463.149 268.761C466.315 269.869 470.212 270.682 474.403 271.556C476.023 271.894 477.688 272.241 479.371 272.618C485.287 273.943 491.381 275.63 495.897 278.638C498.177 280.157 500.1 282.039 501.39 284.422C502.685 286.813 503.3 289.629 503.079 292.937C502.692 298.75 504.879 306.874 509.023 316.52C513.146 326.117 519.124 337.039 526.119 348.378C540.108 371.053 558.095 395.281 573.229 413.712C573.709 414.296 573.624 415.157 573.04 415.637C572.456 416.116 571.594 416.031 571.114 415.448C555.922 396.947 537.859 372.619 523.79 349.814C516.757 338.414 510.704 327.366 506.509 317.6C502.335 307.883 499.916 299.252 500.349 292.755C500.539 289.907 500.008 287.615 498.984 285.724C497.955 283.824 496.384 282.25 494.38 280.915C490.329 278.217 484.691 276.613 478.773 275.287C477.204 274.936 475.61 274.604 474.029 274.274C469.766 273.385 465.593 272.515 462.245 271.343C459.935 270.535 457.862 269.535 456.35 268.178C454.794 266.781 453.83 264.995 453.83 262.754C453.83 261.998 454.443 261.386 455.198 261.386Z" fill="white"/>
<path fill-rule="evenodd" clip-rule="evenodd" d="M455.058 259.871C456.573 259.871 457.801 261.103 457.801 262.624C457.801 263.534 458.132 264.264 458.961 265.012C459.882 265.842 461.363 266.628 463.481 267.373C466.551 268.451 470.36 269.252 474.589 270.138L474.593 270.139C476.214 270.478 477.891 270.829 479.588 271.211C485.518 272.545 491.854 274.285 496.615 277.47C499.038 279.09 501.142 281.141 502.566 283.782C504 286.442 504.658 289.54 504.422 293.101C504.056 298.608 506.133 306.532 510.272 316.207C514.368 325.783 520.323 336.715 527.316 348.099C541.299 370.861 559.29 395.201 574.432 413.719C575.393 414.895 575.223 416.63 574.053 417.595C572.882 418.56 571.154 418.389 570.192 417.214C554.935 398.555 536.79 374.012 522.647 350.991C515.578 339.483 509.474 328.298 505.231 318.381C501.032 308.564 498.491 299.62 498.949 292.735C499.123 290.1 498.633 288.056 497.742 286.404C496.842 284.734 495.444 283.305 493.573 282.053C489.746 279.493 484.323 277.92 478.389 276.586C476.828 276.235 475.24 275.902 473.653 275.57L473.589 275.556C469.363 274.671 465.109 273.78 461.669 272.571C459.286 271.734 457.009 270.654 455.296 269.109C453.494 267.484 452.315 265.331 452.315 262.624C452.315 261.103 453.543 259.871 455.058 259.871ZM456.429 262.624C456.429 261.864 455.815 261.247 455.058 261.247C454.3 261.247 453.686 261.864 453.686 262.624C453.686 264.881 454.652 266.678 456.212 268.085C457.727 269.451 459.805 270.457 462.122 271.271C465.477 272.451 469.66 273.327 473.933 274.222L473.933 274.222L473.933 274.222C475.519 274.554 477.116 274.888 478.689 275.242C484.621 276.576 490.273 278.191 494.334 280.907C496.343 282.251 497.917 283.836 498.948 285.749C499.975 287.652 500.507 289.96 500.317 292.826C499.883 299.367 502.307 308.056 506.491 317.838C510.697 327.669 516.764 338.791 523.815 350.268C537.917 373.225 556.024 397.716 571.252 416.34C571.733 416.928 572.597 417.013 573.182 416.531C573.768 416.048 573.853 415.18 573.372 414.593C558.201 396.039 540.172 371.649 526.149 348.822C519.137 337.407 513.144 326.412 509.012 316.751C504.858 307.04 502.665 298.861 503.054 293.009C503.275 289.68 502.659 286.845 501.36 284.437C500.067 282.039 498.14 280.144 495.854 278.615C491.327 275.587 485.219 273.889 479.288 272.555C477.601 272.175 475.933 271.826 474.308 271.486C470.107 270.606 466.201 269.787 463.028 268.672C460.844 267.905 459.164 267.045 458.045 266.036C456.972 265.068 456.429 263.982 456.429 262.624Z" fill="black"/>
<path fill-rule="evenodd" clip-rule="evenodd" d="M624.659 506.51C625.194 507.044 625.194 507.911 624.659 508.446C618.397 514.696 614.233 523.915 611.474 535.451C608.717 546.975 607.392 560.675 606.708 575.753C606.162 587.778 606.024 600.629 605.882 613.909C605.845 617.28 605.809 620.678 605.766 624.097C605.551 640.972 605.165 658.343 603.789 675.339C602.665 689.219 597.261 697.497 588.842 701.321C580.569 705.078 569.746 704.35 558.134 701.163C534.863 694.776 507.329 678.193 487.76 664.715C487.136 664.286 486.98 663.433 487.41 662.811C487.841 662.188 488.695 662.032 489.319 662.461C508.854 675.915 536.066 692.266 558.862 698.523C570.283 701.658 580.324 702.18 587.706 698.828C594.941 695.542 599.982 688.352 601.054 675.118C602.422 658.221 602.807 640.929 603.022 624.062C603.065 620.657 603.101 617.269 603.137 613.905C603.28 600.619 603.418 587.706 603.966 575.629C604.654 560.494 605.987 546.592 608.805 534.815C611.619 523.05 615.945 513.269 622.718 506.51C623.254 505.975 624.123 505.975 624.659 506.51Z" fill="white"/>
<path fill-rule="evenodd" clip-rule="evenodd" d="M626.528 508.518C620.51 514.521 616.419 523.473 613.681 534.911C610.949 546.325 609.627 559.943 608.942 575.015C608.396 587.029 608.258 599.874 608.115 613.179C608.079 616.554 608.043 619.958 607.999 623.384C607.784 640.289 607.397 657.724 606.014 674.794C604.862 689.017 599.265 697.853 590.236 701.951C581.5 705.917 570.262 705.086 558.531 701.868C534.974 695.406 507.223 678.682 487.598 665.173C486.348 664.313 486.034 662.605 486.896 661.358C487.759 660.111 489.471 659.798 490.721 660.659C510.28 674.121 537.386 690.378 559.989 696.579C571.339 699.692 581.008 700.113 587.958 696.958C594.616 693.936 599.485 687.28 600.532 674.352C601.899 657.48 602.285 640.202 602.5 623.315C602.543 619.907 602.58 616.515 602.616 613.146L602.616 613.13C602.758 599.835 602.897 586.884 603.448 574.766C604.138 559.582 605.479 545.557 608.332 533.637C611.18 521.739 615.596 511.664 622.639 504.639C623.713 503.568 625.454 503.568 626.528 504.639C627.602 505.71 627.602 507.447 626.528 508.518ZM625.556 507.548C626.093 507.012 626.093 506.144 625.556 505.609C625.019 505.073 624.148 505.073 623.611 505.609C616.825 512.378 612.49 522.173 609.67 533.955C606.847 545.749 605.51 559.672 604.821 574.828C604.272 586.923 604.133 599.854 603.991 613.159V613.16C603.955 616.529 603.918 619.922 603.875 623.332C603.66 640.223 603.274 657.541 601.903 674.462C600.829 687.715 595.778 694.916 588.528 698.207C581.131 701.564 571.07 701.041 559.625 697.901C536.783 691.635 509.515 675.261 489.94 661.787C489.315 661.357 488.459 661.514 488.028 662.137C487.597 662.76 487.754 663.615 488.379 664.045C507.987 677.542 535.577 694.149 558.896 700.546C570.531 703.737 581.377 704.466 589.666 700.703C598.102 696.874 603.517 688.584 604.644 674.683C606.022 657.663 606.409 640.267 606.624 623.367C606.668 619.944 606.704 616.543 606.74 613.17L606.74 613.165V613.164C606.883 599.864 607.021 586.995 607.568 574.952C608.254 559.852 609.582 546.133 612.344 534.592C615.109 523.04 619.281 513.807 625.556 507.548Z" fill="black"/>
<path fill-rule="evenodd" clip-rule="evenodd" d="M895.496 397.888C896.186 398.205 896.491 399.026 896.178 399.723C890.735 411.8 877.642 418.068 860.69 421.484C843.681 424.911 822.31 425.559 799.674 425.992C797.554 426.032 795.421 426.071 793.28 426.11C772.513 426.486 750.885 426.877 730.53 429.165C708.067 431.69 687.305 436.511 671.07 446.065C670.415 446.45 669.574 446.227 669.192 445.566C668.81 444.905 669.031 444.057 669.686 443.671C686.412 433.829 707.624 428.952 730.226 426.412C750.716 424.108 772.474 423.715 793.219 423.339C795.365 423.3 797.5 423.262 799.622 423.221C822.308 422.788 843.427 422.137 860.152 418.767C876.934 415.385 888.819 409.358 893.677 398.576C893.991 397.88 894.805 397.572 895.496 397.888Z" fill="white"/>
<path fill-rule="evenodd" clip-rule="evenodd" d="M892.562 398.591L892.562 398.591C893.191 397.232 894.821 396.631 896.204 397.249C897.586 397.867 898.198 399.469 897.569 400.828C891.828 413.242 878.113 419.474 861.055 422.822C843.884 426.193 822.36 426.824 799.721 427.245C797.602 427.285 795.472 427.322 793.333 427.36L793.318 427.36C772.512 427.728 750.924 428.11 730.618 430.333C708.198 432.789 687.635 437.464 671.626 446.643C670.314 447.395 668.63 446.959 667.864 445.67L668.915 445.068L667.864 445.67C667.099 444.38 667.542 442.725 668.854 441.973H668.854C685.847 432.231 707.31 427.447 730.009 424.961C750.588 422.707 772.425 422.322 793.174 421.956L793.207 421.956C795.356 421.918 797.494 421.88 799.617 421.84C822.356 421.417 843.374 420.781 859.978 417.521C876.695 414.239 887.99 408.477 892.562 398.591ZM669.547 443.141C668.891 443.517 668.669 444.344 669.052 444.989C669.435 445.634 670.277 445.851 670.933 445.475C687.188 436.156 707.976 431.453 730.466 428.99C750.846 426.758 772.5 426.376 793.293 426.009L793.296 426.009C795.439 425.971 797.573 425.934 799.695 425.894C822.359 425.472 843.756 424.84 860.786 421.497C877.759 418.165 890.869 412.051 896.317 400.269C896.632 399.589 896.326 398.788 895.635 398.479C894.943 398.171 894.128 398.471 893.814 399.15C888.95 409.668 877.05 415.548 860.247 418.846C843.502 422.134 822.357 422.769 799.643 423.192C797.519 423.231 795.381 423.269 793.232 423.307C772.461 423.673 750.677 424.057 730.161 426.304C707.532 428.782 686.294 433.539 669.547 443.141Z" fill="black"/>
</g>
<defs>
<filter id="filter0_d_101_37" x="0" y="0" width="966" height="754.614" filterUnits="userSpaceOnUse" color-interpolation-filters="sRGB">
<feFlood flood-opacity="0" result="BackgroundImageFix"/>
<feColorMatrix in="SourceAlpha" type="matrix" values="0 0 0 0 0 0 0 0 0 0 0 0 0 0 0 0 0 0 127 0" result="hardAlpha"/>
<feOffset/>
<feGaussianBlur stdDeviation="25"/>
<feComposite in2="hardAlpha" operator="out"/>
<feColorMatrix type="matrix" values="0 0 0 0 1 0 0 0 0 1 0 0 0 0 1 0 0 0 1 0"/>
<feBlend mode="normal" in2="BackgroundImageFix" result="effect1_dropShadow_101_37"/>
<feBlend mode="normal" in="SourceGraphic" in2="effect1_dropShadow_101_37" result="shape"/>
</filter>
</defs>
</svg>
